<?xml version="1.0" standalone="no"?>
<!DOCTYPE svg PUBLIC "-//W3C//DTD SVG 20010904//EN"
 "http://www.w3.org/TR/2001/REC-SVG-20010904/DTD/svg10.dtd">
<svg version="1.0" xmlns="http://www.w3.org/2000/svg"
 width="512.000000pt" height="512.000000pt" viewBox="0 0 512.000000 512.000000"
 preserveAspectRatio="xMidYMid meet">
<metadata>
Created by potrace 1.11, written by Peter Selinger 2001-2013
</metadata>
<g transform="translate(0.000000,512.000000) scale(0.100000,-0.100000)"
fill="#000000" stroke="none">
<path d="M2570 5040 c-8 -5 -44 -10 -79 -10 -121 0 -313 -57 -368 -110 -26
-24 -30 -71 -8 -93 12 -13 4 -19 -67 -52 -157 -72 -267 -165 -318 -269 -52
-109 -34 -199 55 -261 19 -13 19 -14 -12 -25 -18 -7 -33 -15 -33 -19 0 -3 -18
-17 -40 -31 -97 -60 -226 -246 -252 -363 -38 -172 -41 -198 -29 -253 21 -91
101 -133 163 -85 42 33 75 125 82 223 4 48 9 94 12 101 13 36 145 120 161 103
7 -7 -15 -77 -26 -86 -10 -8 -48 -102 -66 -163 -25 -85 -18 -305 11 -361 31
-60 104 -117 156 -123 39 -4 46 -1 77 31 42 44 50 102 27 204 -20 87 -20 145
-2 180 18 33 74 88 82 79 3 -3 -4 -36 -16 -73 -51 -153 1 -300 120 -335 75
-23 132 17 163 112 29 91 57 129 124 170 68 42 83 46 188 55 94 8 177 -12 306
-76 57 -28 106 -54 109 -59 3 -4 32 -26 65 -49 58 -39 163 -146 188 -189 7
-12 27 -46 45 -76 59 -99 91 -211 95 -333 5 -114 3 -132 -37 -309 -33 -151
-50 -210 -80 -278 -14 -32 -26 -66 -26 -76 0 -19 -39 -61 -57 -61 -7 0 -41
-14 -76 -30 -74 -34 -92 -36 -162 -14 -27 8 -88 17 -135 20 -47 4 -93 10 -103
16 -10 5 -64 6 -130 2 -99 -6 -117 -10 -152 -34 -22 -15 -73 -41 -113 -58
l-73 -31 -77 15 c-42 9 -117 24 -167 34 -49 9 -128 29 -175 43 -47 14 -86 24
-87 23 -2 -1 -4 -15 -5 -30 -2 -22 -6 -26 -23 -21 -11 3 -49 12 -85 20 -36 8
-86 20 -112 26 -46 10 -50 9 -90 -20 -23 -17 -46 -31 -51 -31 -5 0 -32 -15
-60 -34 -29 -19 -75 -42 -103 -52 -47 -16 -52 -16 -84 -1 -18 9 -39 17 -47 17
-12 0 -93 31 -158 60 -11 5 -53 15 -94 23 -68 13 -74 12 -90 -4 -22 -24 -186
-95 -241 -104 -25 -5 -54 -10 -65 -12 -11 -2 -67 -6 -125 -9 l-106 -6 -34 57
c-19 31 -41 63 -47 70 -16 16 -113 220 -113 235 0 6 -4 8 -10 5 -5 -3 -10 -34
-10 -68 0 -85 36 -368 55 -425 56 -180 85 -252 142 -366 79 -155 193 -329 295
-451 91 -109 268 -282 325 -318 23 -14 44 -31 48 -37 6 -10 148 -106 200 -136
11 -6 43 -25 70 -42 60 -37 260 -136 295 -147 14 -4 43 -15 65 -25 22 -9 69
-27 105 -40 36 -12 82 -29 103 -36 21 -8 52 -16 70 -19 18 -2 70 -13 117 -24
197 -46 232 -50 530 -47 342 3 415 10 575 57 17 5 55 13 85 19 53 9 77 18 280
96 124 47 160 63 190 80 14 8 43 23 65 33 57 26 299 182 350 226 13 11 45 36
70 55 164 123 385 366 512 563 21 33 48 71 60 86 20 25 47 73 110 196 65 126
144 335 177 470 15 61 34 137 43 170 24 94 35 233 36 445 2 269 -1 316 -30
465 -14 72 -29 153 -34 181 -5 28 -25 93 -44 145 -19 52 -35 102 -35 112 0 10
-13 47 -30 82 -16 35 -30 68 -30 72 -1 7 -33 70 -144 284 -36 68 -119 190
-215 314 -85 111 -303 316 -435 409 -127 91 -408 246 -446 246 -5 0 -34 11
-65 25 -94 44 -366 111 -515 127 -134 15 -442 20 -460 8z m520 -95 c429 -80
779 -261 1094 -565 118 -114 210 -221 298 -350 66 -97 97 -149 57 -95 -72 96
-179 172 -225 161 -31 -8 -32 -55 -3 -123 11 -26 23 -71 26 -100 l6 -52 -39
-6 c-77 -13 -77 -13 -71 -61 2 -24 32 -101 65 -171 72 -150 92 -218 102 -333
5 -47 17 -139 29 -205 26 -150 29 -382 5 -505 -27 -143 -81 -288 -189 -506
-123 -247 -127 -267 -65 -308 54 -35 73 -76 73 -156 0 -117 -45 -231 -148
-375 -161 -224 -410 -475 -559 -560 -53 -31 -186 -96 -186 -91 0 1 53 45 117
97 267 214 590 579 693 784 64 126 63 214 -2 259 -27 19 -109 21 -127 4 -7 -7
0 14 14 47 62 137 165 399 208 525 96 288 121 420 121 635 -1 175 -21 276 -83
415 -21 47 -51 116 -66 153 -53 131 -161 288 -260 380 -16 16 -61 52 -100 81
-235 177 -520 256 -874 243 -241 -9 -440 -53 -554 -121 -104 -63 -117 -130
-16 -82 66 31 169 56 229 55 l45 0 -50 -18 c-190 -68 -299 -183 -390 -412 -43
-106 -104 -209 -124 -209 -23 0 -20 171 4 210 15 25 42 186 35 206 -17 44 -87
43 -156 -2 -50 -32 -75 -69 -113 -166 -33 -82 -40 -152 -20 -222 14 -51 5 -82
-30 -101 -36 -18 -46 -9 -67 61 -34 113 -9 283 58 397 17 28 34 62 39 74 6 15
37 36 94 63 116 56 142 101 76 134 -73 38 -191 27 -301 -27 -49 -24 -77 -47
-112 -91 -70 -88 -81 -117 -85 -231 -5 -104 -16 -150 -38 -159 -28 -10 -40 25
-39 118 1 160 45 261 173 399 35 36 90 84 124 105 67 42 297 132 338 132 38 0
67 -26 71 -63 2 -26 8 -33 30 -35 37 -4 89 22 147 74 71 64 83 108 55 202 -16
55 67 3 86 -54 11 -33 10 -56 -7 -101 -6 -17 -5 -16 16 2 50 44 65 114 37 178
-34 79 -111 110 -276 111 -125 1 -144 -5 -225 -67 -56 -44 -76 -64 -124 -130
-76 -104 -171 -104 -171 1 0 183 362 382 696 382 57 0 115 5 130 10 25 10 26
12 12 27 -23 23 -159 52 -276 60 -57 3 -99 9 -95 13 25 23 183 57 323 71 127
12 441 2 540 -16z m-941 -531 c12 -15 21 -29 21 -33 0 -3 -30 -19 -67 -35 -99
-42 -97 -41 -87 -24 15 26 97 118 105 118 4 0 17 -12 28 -26z m1376 -1941
c-18 -277 -97 -524 -232 -723 -139 -207 -368 -423 -539 -510 -89 -45 -110 -39
-51 13 26 23 47 45 47 49 0 4 -24 -2 -52 -13 -287 -116 -353 -136 -454 -141
-99 -5 -133 -15 -194 -59 -36 -26 -163 -75 -271 -104 l-94 -25 -125 16 c-358
45 -718 187 -1064 419 -142 96 -238 174 -254 207 -11 25 -82 323 -82 348 0 6
37 -35 81 -92 119 -150 393 -420 514 -505 232 -164 376 -215 690 -244 191 -17
368 -7 689 41 225 34 492 126 650 224 178 111 474 458 581 681 64 134 155 426
155 496 0 11 3 19 6 19 3 0 2 -44 -1 -97z m-260 -487 c-21 -31 -116 -70 -230
-95 -128 -27 -225 -35 -420 -36 -219 0 -266 6 -512 65 -113 28 -121 27 -125
-12 -3 -29 -10 -36 -56 -58 -65 -31 -77 -48 -54 -73 16 -18 16 -20 -7 -38 -35
-29 -106 -26 -135 6 -27 29 -40 30 -118 9 -49 -14 -63 -15 -86 -4 l-27 13 55
17 c153 47 223 82 288 147 l63 62 112 -28 c62 -16 146 -34 187 -41 387 -57
439 -60 630 -31 143 22 240 47 355 89 99 37 99 37 80 8z m365 -217 c-28 -139
-62 -245 -115 -355 -76 -157 -238 -344 -385 -444 -64 -43 -208 -116 -215 -108
-2 2 24 21 59 41 137 78 271 205 364 344 80 118 187 351 264 573 37 108 43
120 46 89 2 -20 -6 -83 -18 -140z m-2375 63 c39 -21 140 -77 225 -125 128 -71
173 -91 255 -111 125 -32 319 -50 450 -42 74 5 95 3 82 -5 -31 -18 -154 -22
-337 -10 -183 12 -298 28 -418 60 -60 16 -73 16 -83 5 -29 -35 -70 -4 -84 64
-7 33 -37 58 -56 47 -5 -4 -24 -31 -40 -61 -36 -63 -111 -144 -134 -144 -17 0
-12 15 36 113 18 36 21 52 13 64 -18 29 -32 26 -81 -19 -64 -59 -88 -72 -167
-97 -81 -25 -175 -27 -278 -6 -72 15 -74 16 -150 97 -43 45 -76 83 -75 85 2 1
32 -7 67 -18 82 -25 219 -49 285 -49 68 0 194 33 256 66 27 15 70 49 97 75 26
27 52 48 57 48 6 0 42 -16 80 -37z m1405 -132 c25 -4 85 -16 134 -25 71 -14
105 -16 163 -9 70 9 73 9 55 -8 -10 -10 -49 -27 -87 -39 -57 -16 -92 -20 -185
-17 l-115 3 -5 -63 c-4 -54 -9 -67 -33 -88 -34 -29 -47 -30 -47 -4 0 25 -5 25
-47 -1 -19 -12 -36 -19 -38 -17 -3 2 0 21 6 41 11 41 4 77 -14 77 -7 0 -36
-25 -65 -55 -113 -115 -443 -238 -631 -234 l-46 1 65 19 c115 34 312 110 415
159 116 56 200 126 236 197 13 26 25 50 27 52 10 16 147 24 212 11z m736 -197
c-107 -221 -193 -337 -320 -432 -50 -37 -104 -75 -121 -84 -51 -28 -362 -127
-398 -127 -23 0 -47 10 -73 31 -52 41 -102 61 -135 54 -22 -5 -30 -2 -39 17
-7 13 -35 47 -63 75 l-51 53 182 0 c471 0 656 59 872 281 52 53 115 128 140
166 25 39 47 69 49 67 2 -2 -17 -47 -43 -101z m-942 -696 c15 -28 16 -40 7
-91 -6 -32 -8 -62 -5 -67 12 -19 71 -7 155 31 l87 41 119 -7 c106 -6 123 -4
172 15 29 12 56 20 58 17 10 -10 -69 -57 -152 -90 -169 -68 -215 -100 -187
-128 9 -9 39 -12 94 -11 67 2 78 0 69 -11 -48 -57 -454 -147 -654 -145 l-82 1
75 19 c100 25 179 67 207 108 46 68 16 104 -75 92 -29 -4 -54 -5 -57 -3 -7 8
129 262 141 262 6 0 19 -15 28 -33z"/>
<path d="M1365 4170 c-137 -28 -237 -133 -210 -222 14 -46 54 -88 84 -88 53 0
141 82 141 133 0 10 16 53 35 95 44 93 40 100 -50 82z m-35 -121 c-28 -71 -46
-98 -73 -108 -42 -16 -61 28 -36 83 16 35 108 93 127 80 1 -1 -7 -26 -18 -55z"/>
<path d="M1876 2958 c-8 -13 -29 -54 -47 -91 -29 -64 -31 -74 -26 -140 4 -40
11 -88 17 -107 13 -45 63 -78 133 -86 48 -6 56 -4 85 21 27 22 32 34 32 68 0
61 -17 112 -58 175 -20 32 -50 84 -67 116 -34 68 -48 76 -69 44z m91 -240 c17
-33 20 -105 5 -120 -6 -6 -22 -8 -37 -4 -77 19 -104 127 -59 235 l14 33 31
-58 c18 -33 38 -71 46 -86z"/>
</g>
</svg>
